<svg width="100" height="119" viewBox="0 0 100 119" fill="none" xmlns="http://www.w3.org/2000/svg">
<path d="M26.3978 20.5754C28.4788 13.8435 37.8953 13.547 40.4551 20.1327L60.7233 72.2774L55.5788 67.6683C52.0196 64.4795 49.4287 60.3548 48.1041 55.7687L44.9363 44.8007L40.8255 33.9583C38.2795 27.2432 28.6589 27.6142 26.6983 34.5031L26.6002 34.8479L13.2031 82.92C12.6968 84.7365 12.025 86.5021 11.196 88.1946L8.53739 93.6223L1.14514 102.265L26.3978 20.5754Z" fill="#D9D9D9"/>
<path d="M63.5513 100.68C61.057 106.96 52.1425 106.893 49.687 100.576L28.5427 46.1773L33.6872 50.7865C37.2464 53.9752 39.8373 58.1 41.1619 62.686L44.3297 73.654L48.4405 84.4965C50.9865 91.2116 60.6072 90.8406 62.5677 83.9516L62.6659 83.6068L87.5107 28.5307L91.4154 20.5589L98.8077 11.9164L63.5513 100.68Z" fill="#D9D9D9"/>
</svg>
